<svg xmlns="http://www.w3.org/2000/svg" width="880" height="372" viewBox="0 0 880 372" role="img">
<defs><clipPath id="clip1"><rect x="65" y="55" width="342" height="218"/></clipPath><clipPath id="clip2"><rect x="505" y="55" width="342" height="218"/></clipPath></defs>
<rect width="880" height="372" fill="#ffffff"/>
<line x1="66" y1="236.0" x2="406" y2="236.0" stroke="#eaedf1" stroke-width="1"/>
<line x1="66" y1="200.0" x2="406" y2="200.0" stroke="#eaedf1" stroke-width="1"/>
<line x1="66" y1="164.0" x2="406" y2="164.0" stroke="#eaedf1" stroke-width="1"/>
<line x1="66" y1="128.0" x2="406" y2="128.0" stroke="#eaedf1" stroke-width="1"/>
<line x1="66" y1="92.0" x2="406" y2="92.0" stroke="#eaedf1" stroke-width="1"/>
<line x1="66" y1="56.0" x2="406" y2="56.0" stroke="#eaedf1" stroke-width="1"/>
<line x1="66" y1="272" x2="406" y2="272" stroke="#1f2328" stroke-width="1.2"/>
<line x1="66" y1="56" x2="66" y2="272" stroke="#1f2328" stroke-width="1.2"/>
<line x1="66.0" y1="272" x2="66.0" y2="276" stroke="#6b7280" stroke-width="1"/>
<text x="66.0" y="289.0" font-family="-apple-system,BlinkMacSystemFont,'PingFang SC','Hiragino Sans GB','Microsoft YaHei',Helvetica,Arial,sans-serif" font-size="10.5" fill="#6b7280" text-anchor="middle" font-weight="400">0</text>
<line x1="122.7" y1="272" x2="122.7" y2="276" stroke="#6b7280" stroke-width="1"/>
<text x="122.7" y="289.0" font-family="-apple-system,BlinkMacSystemFont,'PingFang SC','Hiragino Sans GB','Microsoft YaHei',Helvetica,Arial,sans-serif" font-size="10.5" fill="#6b7280" text-anchor="middle" font-weight="400">5</text>
<line x1="179.3" y1="272" x2="179.3" y2="276" stroke="#6b7280" stroke-width="1"/>
<text x="179.3" y="289.0" font-family="-apple-system,BlinkMacSystemFont,'PingFang SC','Hiragino Sans GB','Microsoft YaHei',Helvetica,Arial,sans-serif" font-size="10.5" fill="#6b7280" text-anchor="middle" font-weight="400">10</text>
<line x1="236.0" y1="272" x2="236.0" y2="276" stroke="#6b7280" stroke-width="1"/>
<text x="236.0" y="289.0" font-family="-apple-system,BlinkMacSystemFont,'PingFang SC','Hiragino Sans GB','Microsoft YaHei',Helvetica,Arial,sans-serif" font-size="10.5" fill="#6b7280" text-anchor="middle" font-weight="400">15</text>
<line x1="292.7" y1="272" x2="292.7" y2="276" stroke="#6b7280" stroke-width="1"/>
<text x="292.7" y="289.0" font-family="-apple-system,BlinkMacSystemFont,'PingFang SC','Hiragino Sans GB','Microsoft YaHei',Helvetica,Arial,sans-serif" font-size="10.5" fill="#6b7280" text-anchor="middle" font-weight="400">20</text>
<line x1="349.3" y1="272" x2="349.3" y2="276" stroke="#6b7280" stroke-width="1"/>
<text x="349.3" y="289.0" font-family="-apple-system,BlinkMacSystemFont,'PingFang SC','Hiragino Sans GB','Microsoft YaHei',Helvetica,Arial,sans-serif" font-size="10.5" fill="#6b7280" text-anchor="middle" font-weight="400">25</text>
<line x1="406.0" y1="272" x2="406.0" y2="276" stroke="#6b7280" stroke-width="1"/>
<text x="406.0" y="289.0" font-family="-apple-system,BlinkMacSystemFont,'PingFang SC','Hiragino Sans GB','Microsoft YaHei',Helvetica,Arial,sans-serif" font-size="10.5" fill="#6b7280" text-anchor="middle" font-weight="400">30</text>
<line x1="62" y1="272.0" x2="66" y2="272.0" stroke="#6b7280" stroke-width="1"/>
<text x="58.0" y="275.6" font-family="-apple-system,BlinkMacSystemFont,'PingFang SC','Hiragino Sans GB','Microsoft YaHei',Helvetica,Arial,sans-serif" font-size="10.5" fill="#6b7280" text-anchor="end" font-weight="400">40%</text>
<line x1="62" y1="236.0" x2="66" y2="236.0" stroke="#6b7280" stroke-width="1"/>
<text x="58.0" y="239.6" font-family="-apple-system,BlinkMacSystemFont,'PingFang SC','Hiragino Sans GB','Microsoft YaHei',Helvetica,Arial,sans-serif" font-size="10.5" fill="#6b7280" text-anchor="end" font-weight="400">50%</text>
<line x1="62" y1="200.0" x2="66" y2="200.0" stroke="#6b7280" stroke-width="1"/>
<text x="58.0" y="203.6" font-family="-apple-system,BlinkMacSystemFont,'PingFang SC','Hiragino Sans GB','Microsoft YaHei',Helvetica,Arial,sans-serif" font-size="10.5" fill="#6b7280" text-anchor="end" font-weight="400">60%</text>
<line x1="62" y1="164.0" x2="66" y2="164.0" stroke="#6b7280" stroke-width="1"/>
<text x="58.0" y="167.6" font-family="-apple-system,BlinkMacSystemFont,'PingFang SC','Hiragino Sans GB','Microsoft YaHei',Helvetica,Arial,sans-serif" font-size="10.5" fill="#6b7280" text-anchor="end" font-weight="400">70%</text>
<line x1="62" y1="128.0" x2="66" y2="128.0" stroke="#6b7280" stroke-width="1"/>
<text x="58.0" y="131.6" font-family="-apple-system,BlinkMacSystemFont,'PingFang SC','Hiragino Sans GB','Microsoft YaHei',Helvetica,Arial,sans-serif" font-size="10.5" fill="#6b7280" text-anchor="end" font-weight="400">80%</text>
<line x1="62" y1="92.0" x2="66" y2="92.0" stroke="#6b7280" stroke-width="1"/>
<text x="58.0" y="95.6" font-family="-apple-system,BlinkMacSystemFont,'PingFang SC','Hiragino Sans GB','Microsoft YaHei',Helvetica,Arial,sans-serif" font-size="10.5" fill="#6b7280" text-anchor="end" font-weight="400">90%</text>
<line x1="62" y1="56.0" x2="66" y2="56.0" stroke="#6b7280" stroke-width="1"/>
<text x="58.0" y="59.6" font-family="-apple-system,BlinkMacSystemFont,'PingFang SC','Hiragino Sans GB','Microsoft YaHei',Helvetica,Arial,sans-serif" font-size="10.5" fill="#6b7280" text-anchor="end" font-weight="400">100%</text>
<text x="66.0" y="42.0" font-family="-apple-system,BlinkMacSystemFont,'PingFang SC','Hiragino Sans GB','Microsoft YaHei',Helvetica,Arial,sans-serif" font-size="12.5" fill="#1f2328" text-anchor="start" font-weight="600">(a) 检查者也会冤枉正确答案时</text>
<text x="406.0" y="308.0" font-family="-apple-system,BlinkMacSystemFont,'PingFang SC','Hiragino Sans GB','Microsoft YaHei',Helvetica,Arial,sans-serif" font-size="12" fill="#6b7280" text-anchor="end" font-weight="400">检查道数 k</text>
<text x="24.0" y="164.0" font-family="-apple-system,BlinkMacSystemFont,'PingFang SC','Hiragino Sans GB','Microsoft YaHei',Helvetica,Arial,sans-serif" font-size="12" fill="#6b7280" text-anchor="middle" font-weight="400" transform="rotate(-90 24.0 164.0)">可靠性 rₖ</text>
<path d="M66.0,236.0 L77.3,167.8 L88.7,116.8 L100.0,86.2 L111.3,70.3 L122.7,62.6 L134.0,59.0 L145.3,57.4 L156.7,56.6 L168.0,56.3 L179.3,56.1 L190.7,56.1 L202.0,56.0 L213.3,56.0 L224.7,56.0 L236.0,56.0 L247.3,56.0 L258.7,56.0 L270.0,56.0 L281.3,56.0 L292.7,56.0 L304.0,56.0 L315.3,56.0 L326.7,56.0 L338.0,56.0 L349.3,56.0 L360.7,56.0 L372.0,56.0 L383.3,56.0 L394.7,56.0 L406.0,56.0" fill="none" stroke="#9ca3af" stroke-width="2.0" stroke-dasharray="6 4" opacity="1" clip-path="url(#clip1)" stroke-linejoin="round" stroke-linecap="round"/>
<path d="M66.0,236.0 L77.3,167.8 L88.7,145.8 L100.0,137.0 L111.3,133.6 L122.7,133.0 L134.0,134.0 L145.3,136.0 L156.7,138.8 L168.0,142.2 L179.3,145.9 L190.7,149.9 L202.0,154.2 L213.3,158.6 L224.7,163.2 L236.0,168.0 L247.3,172.8 L258.7,177.6 L270.0,182.5 L281.3,187.5 L292.7,192.4 L304.0,197.3 L315.3,202.2 L326.7,207.1 L338.0,211.9 L349.3,216.7 L360.7,221.4 L372.0,226.1 L383.3,230.7 L394.7,235.2 L406.0,239.6" fill="none" stroke="#b5179e" stroke-width="2.4" opacity="1" clip-path="url(#clip1)" stroke-linejoin="round" stroke-linecap="round"/>
<circle cx="122.67" cy="132.95" r="5" fill="#b5179e" stroke="#fff" stroke-width="1.6"/>
<text x="130.7" y="123.0" font-family="-apple-system,BlinkMacSystemFont,'PingFang SC','Hiragino Sans GB','Microsoft YaHei',Helvetica,Arial,sans-serif" font-size="10.5" fill="#b5179e" text-anchor="start" font-weight="600">k = 5 时最高 78.6%</text>
<text x="400.3" y="81.2" font-family="-apple-system,BlinkMacSystemFont,'PingFang SC','Hiragino Sans GB','Microsoft YaHei',Helvetica,Arial,sans-serif" font-size="10.5" fill="#9ca3af" text-anchor="end" font-weight="600">错误独立的预测</text>
<text x="400.3" y="257.6" font-family="-apple-system,BlinkMacSystemFont,'PingFang SC','Hiragino Sans GB','Microsoft YaHei',Helvetica,Arial,sans-serif" font-size="10.5" fill="#b5179e" text-anchor="end" font-weight="600">k = 30 时 49%</text>
<line x1="506" y1="218.0" x2="846" y2="218.0" stroke="#eaedf1" stroke-width="1"/>
<line x1="506" y1="164.0" x2="846" y2="164.0" stroke="#eaedf1" stroke-width="1"/>
<line x1="506" y1="110.0" x2="846" y2="110.0" stroke="#eaedf1" stroke-width="1"/>
<line x1="506" y1="56.0" x2="846" y2="56.0" stroke="#eaedf1" stroke-width="1"/>
<line x1="506" y1="272" x2="846" y2="272" stroke="#1f2328" stroke-width="1.2"/>
<line x1="506" y1="56" x2="506" y2="272" stroke="#1f2328" stroke-width="1.2"/>
<line x1="506.0" y1="272" x2="506.0" y2="276" stroke="#6b7280" stroke-width="1"/>
<text x="506.0" y="289.0" font-family="-apple-system,BlinkMacSystemFont,'PingFang SC','Hiragino Sans GB','Microsoft YaHei',Helvetica,Arial,sans-serif" font-size="10.5" fill="#6b7280" text-anchor="middle" font-weight="400">0</text>
<line x1="574.0" y1="272" x2="574.0" y2="276" stroke="#6b7280" stroke-width="1"/>
<text x="574.0" y="289.0" font-family="-apple-system,BlinkMacSystemFont,'PingFang SC','Hiragino Sans GB','Microsoft YaHei',Helvetica,Arial,sans-serif" font-size="10.5" fill="#6b7280" text-anchor="middle" font-weight="400">3</text>
<line x1="642.0" y1="272" x2="642.0" y2="276" stroke="#6b7280" stroke-width="1"/>
<text x="642.0" y="289.0" font-family="-apple-system,BlinkMacSystemFont,'PingFang SC','Hiragino Sans GB','Microsoft YaHei',Helvetica,Arial,sans-serif" font-size="10.5" fill="#6b7280" text-anchor="middle" font-weight="400">6</text>
<line x1="710.0" y1="272" x2="710.0" y2="276" stroke="#6b7280" stroke-width="1"/>
<text x="710.0" y="289.0" font-family="-apple-system,BlinkMacSystemFont,'PingFang SC','Hiragino Sans GB','Microsoft YaHei',Helvetica,Arial,sans-serif" font-size="10.5" fill="#6b7280" text-anchor="middle" font-weight="400">9</text>
<line x1="778.0" y1="272" x2="778.0" y2="276" stroke="#6b7280" stroke-width="1"/>
<text x="778.0" y="289.0" font-family="-apple-system,BlinkMacSystemFont,'PingFang SC','Hiragino Sans GB','Microsoft YaHei',Helvetica,Arial,sans-serif" font-size="10.5" fill="#6b7280" text-anchor="middle" font-weight="400">12</text>
<line x1="846.0" y1="272" x2="846.0" y2="276" stroke="#6b7280" stroke-width="1"/>
<text x="846.0" y="289.0" font-family="-apple-system,BlinkMacSystemFont,'PingFang SC','Hiragino Sans GB','Microsoft YaHei',Helvetica,Arial,sans-serif" font-size="10.5" fill="#6b7280" text-anchor="middle" font-weight="400">15</text>
<line x1="502" y1="272.0" x2="506" y2="272.0" stroke="#6b7280" stroke-width="1"/>
<text x="498.0" y="275.6" font-family="-apple-system,BlinkMacSystemFont,'PingFang SC','Hiragino Sans GB','Microsoft YaHei',Helvetica,Arial,sans-serif" font-size="10.5" fill="#6b7280" text-anchor="end" font-weight="400">20%</text>
<line x1="502" y1="218.0" x2="506" y2="218.0" stroke="#6b7280" stroke-width="1"/>
<text x="498.0" y="221.6" font-family="-apple-system,BlinkMacSystemFont,'PingFang SC','Hiragino Sans GB','Microsoft YaHei',Helvetica,Arial,sans-serif" font-size="10.5" fill="#6b7280" text-anchor="end" font-weight="400">40%</text>
<line x1="502" y1="164.0" x2="506" y2="164.0" stroke="#6b7280" stroke-width="1"/>
<text x="498.0" y="167.6" font-family="-apple-system,BlinkMacSystemFont,'PingFang SC','Hiragino Sans GB','Microsoft YaHei',Helvetica,Arial,sans-serif" font-size="10.5" fill="#6b7280" text-anchor="end" font-weight="400">60%</text>
<line x1="502" y1="110.0" x2="506" y2="110.0" stroke="#6b7280" stroke-width="1"/>
<text x="498.0" y="113.6" font-family="-apple-system,BlinkMacSystemFont,'PingFang SC','Hiragino Sans GB','Microsoft YaHei',Helvetica,Arial,sans-serif" font-size="10.5" fill="#6b7280" text-anchor="end" font-weight="400">80%</text>
<line x1="502" y1="56.0" x2="506" y2="56.0" stroke="#6b7280" stroke-width="1"/>
<text x="498.0" y="59.6" font-family="-apple-system,BlinkMacSystemFont,'PingFang SC','Hiragino Sans GB','Microsoft YaHei',Helvetica,Arial,sans-serif" font-size="10.5" fill="#6b7280" text-anchor="end" font-weight="400">100%</text>
<text x="506.0" y="42.0" font-family="-apple-system,BlinkMacSystemFont,'PingFang SC','Hiragino Sans GB','Microsoft YaHei',Helvetica,Arial,sans-serif" font-size="12.5" fill="#1f2328" text-anchor="start" font-weight="600">(b) 幸存者里，下一道检查放行多少</text>
<text x="846.0" y="308.0" font-family="-apple-system,BlinkMacSystemFont,'PingFang SC','Hiragino Sans GB','Microsoft YaHei',Helvetica,Arial,sans-serif" font-size="12" fill="#6b7280" text-anchor="end" font-weight="400">已经通过的检查道数 j</text>
<text x="464.0" y="164.0" font-family="-apple-system,BlinkMacSystemFont,'PingFang SC','Hiragino Sans GB','Microsoft YaHei',Helvetica,Arial,sans-serif" font-size="12" fill="#6b7280" text-anchor="middle" font-weight="400" transform="rotate(-90 464.0 164.0)">下一道放行的概率</text>
<path d="M506.0,146.0 L507.1,145.6 L508.3,145.3 L509.4,144.9 L510.5,144.5 L511.7,144.2 L512.8,143.8 L513.9,143.4 L515.1,143.1 L516.2,142.7 L517.3,142.4 L518.5,142.1 L519.6,141.7 L520.7,141.4 L521.9,141.0 L523.0,140.7 L524.1,140.4 L525.3,140.0 L526.4,139.7 L527.5,139.4 L528.7,139.1 L529.8,138.8 L530.9,138.4 L532.1,138.1 L533.2,137.8 L534.3,137.5 L535.5,137.2 L536.6,136.9 L537.7,136.6 L538.9,136.3 L540.0,136.0 L541.1,135.7 L542.3,135.4 L543.4,135.1 L544.5,134.8 L545.7,134.5 L546.8,134.3 L547.9,134.0 L549.1,133.7 L550.2,133.4 L551.3,133.1 L552.5,132.9 L553.6,132.6 L554.7,132.3 L555.9,132.1 L557.0,131.8 L558.1,131.5 L559.3,131.3 L560.4,131.0 L561.5,130.7 L562.7,130.5 L563.8,130.2 L564.9,130.0 L566.1,129.7 L567.2,129.5 L568.3,129.2 L569.5,129.0 L570.6,128.7 L571.7,128.5 L572.9,128.2 L574.0,128.0 L575.1,127.8 L576.3,127.5 L577.4,127.3 L578.5,127.1 L579.7,126.8 L580.8,126.6 L581.9,126.4 L583.1,126.1 L584.2,125.9 L585.3,125.7 L586.5,125.5 L587.6,125.2 L588.7,125.0 L589.9,124.8 L591.0,124.6 L592.1,124.4 L593.3,124.1 L594.4,123.9 L595.5,123.7 L596.7,123.5 L597.8,123.3 L598.9,123.1 L600.1,122.9 L601.2,122.7 L602.3,122.5 L603.5,122.3 L604.6,122.1 L605.7,121.9 L606.9,121.7 L608.0,121.5 L609.1,121.3 L610.3,121.1 L611.4,120.9 L612.5,120.7 L613.7,120.5 L614.8,120.3 L615.9,120.1 L617.1,119.9 L618.2,119.7 L619.3,119.5 L620.5,119.3 L621.6,119.2 L622.7,119.0 L623.9,118.8 L625.0,118.6 L626.1,118.4 L627.3,118.2 L628.4,118.1 L629.5,117.9 L630.7,117.7 L631.8,117.5 L632.9,117.4 L634.1,117.2 L635.2,117.0 L636.3,116.8 L637.5,116.7 L638.6,116.5 L639.7,116.3 L640.9,116.2 L642.0,116.0 L643.1,115.8 L644.3,115.7 L645.4,115.5 L646.5,115.3 L647.7,115.2 L648.8,115.0 L649.9,114.9 L651.1,114.7 L652.2,114.5 L653.3,114.4 L654.5,114.2 L655.6,114.1 L656.7,113.9 L657.9,113.8 L659.0,113.6 L660.1,113.4 L661.3,113.3 L662.4,113.1 L663.5,113.0 L664.7,112.8 L665.8,112.7 L666.9,112.5 L668.1,112.4 L669.2,112.3 L670.3,112.1 L671.5,112.0 L672.6,111.8 L673.7,111.7 L674.9,111.5 L676.0,111.4 L677.1,111.2 L678.3,111.1 L679.4,111.0 L680.5,110.8 L681.7,110.7 L682.8,110.5 L683.9,110.4 L685.1,110.3 L686.2,110.1 L687.3,110.0 L688.5,109.9 L689.6,109.7 L690.7,109.6 L691.9,109.5 L693.0,109.3 L694.1,109.2 L695.3,109.1 L696.4,108.9 L697.5,108.8 L698.7,108.7 L699.8,108.6 L700.9,108.4 L702.1,108.3 L703.2,108.2 L704.3,108.0 L705.5,107.9 L706.6,107.8 L707.7,107.7 L708.9,107.6 L710.0,107.4 L711.1,107.3 L712.3,107.2 L713.4,107.1 L714.5,106.9 L715.7,106.8 L716.8,106.7 L717.9,106.6 L719.1,106.5 L720.2,106.3 L721.3,106.2 L722.5,106.1 L723.6,106.0 L724.7,105.9 L725.9,105.8 L727.0,105.7 L728.1,105.5 L729.3,105.4 L730.4,105.3 L731.5,105.2 L732.7,105.1 L733.8,105.0 L734.9,104.9 L736.1,104.8 L737.2,104.6 L738.3,104.5 L739.5,104.4 L740.6,104.3 L741.7,104.2 L742.9,104.1 L744.0,104.0 L745.1,103.9 L746.3,103.8 L747.4,103.7 L748.5,103.6 L749.7,103.5 L750.8,103.4 L751.9,103.3 L753.1,103.2 L754.2,103.1 L755.3,103.0 L756.5,102.9 L757.6,102.8 L758.7,102.7 L759.9,102.6 L761.0,102.5 L762.1,102.4 L763.3,102.3 L764.4,102.2 L765.5,102.1 L766.7,102.0 L767.8,101.9 L768.9,101.8 L770.1,101.7 L771.2,101.6 L772.3,101.5 L773.5,101.4 L774.6,101.3 L775.7,101.2 L776.9,101.1 L778.0,101.0 L779.1,100.9 L780.3,100.8 L781.4,100.7 L782.5,100.6 L783.7,100.5 L784.8,100.4 L785.9,100.4 L787.1,100.3 L788.2,100.2 L789.3,100.1 L790.5,100.0 L791.6,99.9 L792.7,99.8 L793.9,99.7 L795.0,99.6 L796.1,99.5 L797.3,99.5 L798.4,99.4 L799.5,99.3 L800.7,99.2 L801.8,99.1 L802.9,99.0 L804.1,98.9 L805.2,98.9 L806.3,98.8 L807.5,98.7 L808.6,98.6 L809.7,98.5 L810.9,98.4 L812.0,98.4 L813.1,98.3 L814.3,98.2 L815.4,98.1 L816.5,98.0 L817.7,97.9 L818.8,97.9 L819.9,97.8 L821.1,97.7 L822.2,97.6 L823.3,97.5 L824.5,97.5 L825.6,97.4 L826.7,97.3 L827.9,97.2 L829.0,97.1 L830.1,97.1 L831.3,97.0 L832.4,96.9 L833.5,96.8 L834.7,96.8 L835.8,96.7 L836.9,96.6 L838.1,96.5 L839.2,96.4 L840.3,96.4 L841.5,96.3 L842.6,96.2 L843.7,96.1 L844.9,96.1 L846.0,96.0" fill="none" stroke="#0d9488" stroke-width="2.4" opacity="1" clip-path="url(#clip2)" stroke-linejoin="round" stroke-linecap="round"/>
<path d="M506.0,244.9 L507.1,240.9 L508.3,237.1 L509.4,233.5 L510.5,230.0 L511.7,226.6 L512.8,223.3 L513.9,220.2 L515.1,217.2 L516.2,214.3 L517.3,211.5 L518.5,208.8 L519.6,206.2 L520.7,203.7 L521.9,201.2 L523.0,198.9 L524.1,196.6 L525.3,194.4 L526.4,192.3 L527.5,190.2 L528.7,188.2 L529.8,186.2 L530.9,184.3 L532.1,182.5 L533.2,180.7 L534.3,178.9 L535.5,177.2 L536.6,175.6 L537.7,174.0 L538.9,172.4 L540.0,170.9 L541.1,169.4 L542.3,168.0 L543.4,166.6 L544.5,165.2 L545.7,163.9 L546.8,162.6 L547.9,161.3 L549.1,160.0 L550.2,158.8 L551.3,157.6 L552.5,156.5 L553.6,155.3 L554.7,154.2 L555.9,153.2 L557.0,152.1 L558.1,151.1 L559.3,150.0 L560.4,149.0 L561.5,148.1 L562.7,147.1 L563.8,146.2 L564.9,145.3 L566.1,144.4 L567.2,143.5 L568.3,142.6 L569.5,141.8 L570.6,141.0 L571.7,140.1 L572.9,139.4 L574.0,138.6 L575.1,137.8 L576.3,137.0 L577.4,136.3 L578.5,135.6 L579.7,134.9 L580.8,134.2 L581.9,133.5 L583.1,132.8 L584.2,132.1 L585.3,131.5 L586.5,130.8 L587.6,130.2 L588.7,129.6 L589.9,129.0 L591.0,128.4 L592.1,127.8 L593.3,127.2 L594.4,126.6 L595.5,126.1 L596.7,125.5 L597.8,125.0 L598.9,124.4 L600.1,123.9 L601.2,123.4 L602.3,122.9 L603.5,122.4 L604.6,121.9 L605.7,121.4 L606.9,120.9 L608.0,120.4 L609.1,120.0 L610.3,119.5 L611.4,119.1 L612.5,118.6 L613.7,118.2 L614.8,117.7 L615.9,117.3 L617.1,116.9 L618.2,116.5 L619.3,116.0 L620.5,115.6 L621.6,115.2 L622.7,114.8 L623.9,114.4 L625.0,114.1 L626.1,113.7 L627.3,113.3 L628.4,112.9 L629.5,112.6 L630.7,112.2 L631.8,111.9 L632.9,111.5 L634.1,111.2 L635.2,110.8 L636.3,110.5 L637.5,110.1 L638.6,109.8 L639.7,109.5 L640.9,109.2 L642.0,108.8 L643.1,108.5 L644.3,108.2 L645.4,107.9 L646.5,107.6 L647.7,107.3 L648.8,107.0 L649.9,106.7 L651.1,106.4 L652.2,106.1 L653.3,105.8 L654.5,105.6 L655.6,105.3 L656.7,105.0 L657.9,104.7 L659.0,104.5 L660.1,104.2 L661.3,103.9 L662.4,103.7 L663.5,103.4 L664.7,103.2 L665.8,102.9 L666.9,102.7 L668.1,102.4 L669.2,102.2 L670.3,101.9 L671.5,101.7 L672.6,101.5 L673.7,101.2 L674.9,101.0 L676.0,100.8 L677.1,100.5 L678.3,100.3 L679.4,100.1 L680.5,99.9 L681.7,99.7 L682.8,99.4 L683.9,99.2 L685.1,99.0 L686.2,98.8 L687.3,98.6 L688.5,98.4 L689.6,98.2 L690.7,98.0 L691.9,97.8 L693.0,97.6 L694.1,97.4 L695.3,97.2 L696.4,97.0 L697.5,96.8 L698.7,96.6 L699.8,96.5 L700.9,96.3 L702.1,96.1 L703.2,95.9 L704.3,95.7 L705.5,95.5 L706.6,95.4 L707.7,95.2 L708.9,95.0 L710.0,94.8 L711.1,94.7 L712.3,94.5 L713.4,94.3 L714.5,94.2 L715.7,94.0 L716.8,93.8 L717.9,93.7 L719.1,93.5 L720.2,93.4 L721.3,93.2 L722.5,93.0 L723.6,92.9 L724.7,92.7 L725.9,92.6 L727.0,92.4 L728.1,92.3 L729.3,92.1 L730.4,92.0 L731.5,91.8 L732.7,91.7 L733.8,91.5 L734.9,91.4 L736.1,91.3 L737.2,91.1 L738.3,91.0 L739.5,90.8 L740.6,90.7 L741.7,90.6 L742.9,90.4 L744.0,90.3 L745.1,90.2 L746.3,90.0 L747.4,89.9 L748.5,89.8 L749.7,89.6 L750.8,89.5 L751.9,89.4 L753.1,89.3 L754.2,89.1 L755.3,89.0 L756.5,88.9 L757.6,88.8 L758.7,88.6 L759.9,88.5 L761.0,88.4 L762.1,88.3 L763.3,88.2 L764.4,88.1 L765.5,87.9 L766.7,87.8 L767.8,87.7 L768.9,87.6 L770.1,87.5 L771.2,87.4 L772.3,87.3 L773.5,87.1 L774.6,87.0 L775.7,86.9 L776.9,86.8 L778.0,86.7 L779.1,86.6 L780.3,86.5 L781.4,86.4 L782.5,86.3 L783.7,86.2 L784.8,86.1 L785.9,86.0 L787.1,85.9 L788.2,85.8 L789.3,85.7 L790.5,85.6 L791.6,85.5 L792.7,85.4 L793.9,85.3 L795.0,85.2 L796.1,85.1 L797.3,85.0 L798.4,84.9 L799.5,84.8 L800.7,84.7 L801.8,84.6 L802.9,84.5 L804.1,84.4 L805.2,84.3 L806.3,84.2 L807.5,84.2 L808.6,84.1 L809.7,84.0 L810.9,83.9 L812.0,83.8 L813.1,83.7 L814.3,83.6 L815.4,83.5 L816.5,83.5 L817.7,83.4 L818.8,83.3 L819.9,83.2 L821.1,83.1 L822.2,83.0 L823.3,83.0 L824.5,82.9 L825.6,82.8 L826.7,82.7 L827.9,82.6 L829.0,82.5 L830.1,82.5 L831.3,82.4 L832.4,82.3 L833.5,82.2 L834.7,82.1 L835.8,82.1 L836.9,82.0 L838.1,81.9 L839.2,81.8 L840.3,81.8 L841.5,81.7 L842.6,81.6 L843.7,81.5 L844.9,81.5 L846.0,81.4" fill="none" stroke="#b5179e" stroke-width="2.4" opacity="1" clip-path="url(#clip2)" stroke-linejoin="round" stroke-linecap="round"/>
<line x1="603.9" y1="272.0" x2="603.9" y2="56.0" stroke="#e8590c" stroke-width="1.3" stroke-dasharray="4 4"/>
<text x="609.9" y="245.0" font-family="-apple-system,BlinkMacSystemFont,'PingFang SC','Hiragino Sans GB','Microsoft YaHei',Helvetica,Arial,sans-serif" font-size="10.5" fill="#e8590c" text-anchor="start" font-weight="600">k† ≈ 4.3</text>
<text x="512.8" y="123.6" font-family="-apple-system,BlinkMacSystemFont,'PingFang SC','Hiragino Sans GB','Microsoft YaHei',Helvetica,Arial,sans-serif" font-size="10.5" fill="#0d9488" text-anchor="start" font-weight="600">对的答案</text>
<text x="512.8" y="237.0" font-family="-apple-system,BlinkMacSystemFont,'PingFang SC','Hiragino Sans GB','Microsoft YaHei',Helvetica,Arial,sans-serif" font-size="10.5" fill="#b5179e" text-anchor="start" font-weight="600">错的答案</text>
<text x="839.2" y="74.9" font-family="-apple-system,BlinkMacSystemFont,'PingFang SC','Hiragino Sans GB','Microsoft YaHei',Helvetica,Arial,sans-serif" font-size="10.5" fill="#b5179e" text-anchor="end" font-weight="600">交叉之后，错答反而更容易过</text>
<text x="440.0" y="358.0" font-family="-apple-system,BlinkMacSystemFont,'PingFang SC','Hiragino Sans GB','Microsoft YaHei',Helvetica,Arial,sans-serif" font-size="10.5" fill="#6b7280" text-anchor="middle" font-weight="400">p₀ = 0.5；错答的 α ~ Beta(0.7, 1.63)，对答的 β ~ Beta(8, 4)。平均放行率 0.67 对 0.30，单看平均，检查者相当不错</text>
</svg>
